# Blender 4.5.4 LTS
# www.blender.org
mtllib CubeCannon18.mtl
o Cube
v 1.000000 1.000000 -1.999999
v 1.000000 -1.000000 -1.999999
v 1.000000 1.000000 0.000001
v 1.000000 -1.000000 0.000001
v -1.000000 1.000000 -1.999999
v -1.000000 -1.000000 -1.999999
v -1.000000 1.000000 0.000001
v -1.000000 -1.000000 0.000001
v 0.800000 -0.800000 -1.999999
v -0.800000 -0.800000 -1.999999
v 0.800000 0.800000 -1.999999
v -0.800000 0.800000 -1.999999
v 0.800000 -0.800000 -2.999999
v -0.800000 -0.800000 -2.999999
v 0.800000 0.800000 -2.999999
v -0.800000 0.800000 -2.999999
v 0.640000 -0.640000 -2.999999
v -0.640000 -0.640000 -2.999999
v 0.640000 0.640000 -2.999999
v -0.640000 0.640000 -2.999999
v 0.640000 -0.640000 -3.999999
v -0.640000 -0.640000 -3.999999
v 0.640000 0.640000 -3.999999
v -0.640000 0.640000 -3.999999
v 0.512000 -0.512000 -3.999999
v -0.512000 -0.512000 -3.999999
v 0.512000 0.512000 -3.999999
v -0.512000 0.512000 -3.999999
v 0.512000 -0.512000 -4.999999
v -0.512000 -0.512000 -4.999999
v 0.512000 0.512000 -4.999999
v -0.512000 0.512000 -4.999999
v 0.409600 -0.409600 -4.999999
v -0.409600 -0.409600 -4.999999
v 0.409600 0.409600 -4.999999
v -0.409600 0.409600 -4.999999
v 0.409600 -0.409600 -5.999999
v -0.409600 -0.409600 -5.999999
v 0.409600 0.409600 -5.999999
v -0.409600 0.409600 -5.999999
v 0.327680 -0.327680 -5.999999
v -0.327680 -0.327680 -5.999999
v 0.327680 0.327680 -5.999999
v -0.327680 0.327680 -5.999999
v 0.327680 -0.327680 -6.999999
v -0.327680 -0.327680 -6.999999
v 0.327680 0.327680 -6.999999
v -0.327680 0.327680 -6.999999
v 0.196608 -0.196608 -6.999999
v -0.196608 -0.196608 -6.999999
v 0.196608 0.196608 -6.999999
v -0.196608 0.196608 -6.999999
v 0.196608 -0.196608 -1.999999
v -0.196608 -0.196608 -1.999999
v 0.196608 0.196608 -1.999999
v -0.196608 0.196608 -1.999999
v 0.196608 -0.196608 -1.749999
v -0.196608 -0.196608 -1.749999
v 0.196608 0.196608 -1.749999
v -0.196608 0.196608 -1.749999
v 0.750000 -0.750000 -1.749999
v -0.750000 -0.750000 -1.749999
v 0.750000 0.750000 -1.749999
v -0.750000 0.750000 -1.749999
v 0.750000 -0.750000 -0.249999
v -0.750000 -0.750000 -0.249999
v 0.750000 0.750000 -0.249999
v -0.750000 0.750000 -0.249999
v -0.196608 0.196608 -2.999999
v -0.196608 -0.196608 -2.999999
v 0.196608 -0.196608 -2.999999
v 0.196608 0.196608 -2.999999
v -0.196608 -0.196608 -3.999999
v 0.196608 -0.196608 -3.999999
v -0.196608 0.196608 -3.999999
v 0.196608 0.196608 -3.999999
v -0.196608 -0.196608 -4.999999
v 0.196608 -0.196608 -4.999999
v -0.196608 0.196608 -4.999999
v 0.196608 0.196608 -4.999999
v -0.196608 -0.196608 -5.999999
v 0.196608 -0.196608 -5.999999
v -0.196608 0.196608 -5.999999
v 0.196608 0.196608 -5.999999
v 0.800000 0.800000 -2.900000
v -0.800000 0.800000 -2.900000
v 0.800000 -0.800000 -2.900000
v -0.800000 -0.800000 -2.900000
v -0.800000 0.800000 -2.100000
v -0.800000 -0.800000 -2.100000
v 0.800000 0.800000 -2.100000
v 0.800000 -0.800000 -2.100000
v 0.720000 0.720000 -2.200000
v 0.800000 0.800000 -2.300000
v 0.720000 0.720000 -2.400000
v 0.800000 0.800000 -2.500000
v 0.720000 0.720000 -2.600000
v 0.800000 0.800000 -2.700000
v 0.720000 0.720000 -2.800000
v 0.720000 -0.720000 -2.200000
v 0.800000 -0.800000 -2.300000
v 0.720000 -0.720000 -2.400000
v 0.800000 -0.800000 -2.500000
v 0.720000 -0.720000 -2.600000
v 0.800000 -0.800000 -2.700000
v 0.720000 -0.720000 -2.800000
v -0.720000 0.720000 -2.800000
v -0.800000 0.800000 -2.700000
v -0.720000 0.720000 -2.600000
v -0.800000 0.800000 -2.500000
v -0.720000 0.720000 -2.400000
v -0.800000 0.800000 -2.300000
v -0.720000 0.720000 -2.200000
v -0.720000 -0.720000 -2.800000
v -0.800000 -0.800000 -2.700000
v -0.720000 -0.720000 -2.600000
v -0.800000 -0.800000 -2.500000
v -0.720000 -0.720000 -2.400000
v -0.800000 -0.800000 -2.300000
v -0.720000 -0.720000 -2.200000
v 0.800000 0.800000 -2.900000
v -0.800000 0.800000 -2.900000
v 0.800000 -0.800000 -2.900000
v -0.800000 -0.800000 -2.900000
v 0.800000 0.800000 -2.700000
v -0.800000 0.800000 -2.700000
vn -0.0000 1.0000 -0.0000
vn -0.0000 -0.0000 1.0000
vn -1.0000 -0.0000 -0.0000
vn -0.0000 -1.0000 -0.0000
vn 1.0000 -0.0000 -0.0000
vn -0.0000 -0.0000 -1.0000
vn -0.0000 -0.7809 0.6247
vn -0.7809 -0.0000 0.6247
vn 0.7809 -0.0000 0.6247
vn -0.0000 0.7809 0.6247
vn -0.0000 0.7809 -0.6247
vn 0.7809 -0.0000 -0.6247
vn -0.7809 -0.0000 -0.6247
vn -0.0000 -0.7809 -0.6247
vt 0.000852 0.217813
vt 0.000852 0.000852
vt 0.217813 0.000852
vt 0.217813 0.217813
vt 0.436478 0.000852
vt 0.436478 0.217813
vt 0.219517 0.217813
vt 0.219517 0.000852
vt 0.000852 0.436478
vt 0.000852 0.219517
vt 0.217813 0.219517
vt 0.217813 0.436478
vt 0.436478 0.219517
vt 0.436478 0.436478
vt 0.219517 0.436478
vt 0.219517 0.219517
vt 0.655143 0.000852
vt 0.655143 0.217813
vt 0.438182 0.217813
vt 0.438182 0.000852
vt 0.438182 0.436473
vt 0.438182 0.219517
vt 0.459879 0.241209
vt 0.459878 0.414782
vt 0.355143 0.438183
vt 0.355143 0.611751
vt 0.344295 0.611751
vt 0.344295 0.438183
vt 0.461584 0.436474
vt 0.461584 0.219517
vt 0.483280 0.241209
vt 0.483279 0.414782
vt 0.506681 0.219517
vt 0.506681 0.436473
vt 0.484985 0.414781
vt 0.484986 0.241209
vt 0.530083 0.219517
vt 0.530083 0.436473
vt 0.508386 0.414781
vt 0.508387 0.241209
vt 0.550850 0.568352
vt 0.550850 0.394787
vt 0.568206 0.412141
vt 0.568207 0.550998
vt 0.367696 0.438183
vt 0.367696 0.611751
vt 0.356848 0.611751
vt 0.356848 0.438183
vt 0.380248 0.438183
vt 0.380248 0.611751
vt 0.369400 0.611751
vt 0.369400 0.438183
vt 0.392801 0.438183
vt 0.392801 0.611751
vt 0.381953 0.611751
vt 0.381953 0.438183
vt 0.827072 0.000852
vt 0.827072 0.139707
vt 0.718592 0.139707
vt 0.718592 0.000852
vt 0.549145 0.219517
vt 0.549145 0.393082
vt 0.531788 0.375729
vt 0.531788 0.236871
vt 0.568207 0.219517
vt 0.568207 0.393082
vt 0.550850 0.375729
vt 0.550850 0.236871
vt 0.549145 0.394787
vt 0.549145 0.568352
vt 0.531788 0.550998
vt 0.531788 0.412141
vt 0.419925 0.613455
vt 0.419925 0.752307
vt 0.406040 0.738424
vt 0.406040 0.627338
vt 0.847279 0.394790
vt 0.847279 0.533645
vt 0.738799 0.533645
vt 0.738799 0.394790
vt 0.709586 0.734535
vt 0.709586 0.873389
vt 0.601106 0.873389
vt 0.601106 0.734535
vt 0.819771 0.734535
vt 0.819771 0.873389
vt 0.711291 0.873389
vt 0.711291 0.734535
vt 0.109333 0.777879
vt 0.109333 0.888963
vt 0.000852 0.888963
vt 0.000852 0.777879
vt 0.779417 0.570110
vt 0.779417 0.708962
vt 0.765531 0.695079
vt 0.765531 0.583993
vt 0.791970 0.219517
vt 0.791970 0.358369
vt 0.778085 0.344487
vt 0.778084 0.233400
vt 0.795007 0.570110
vt 0.795007 0.708962
vt 0.781122 0.695079
vt 0.781121 0.583993
vt 0.331481 0.724535
vt 0.331481 0.613454
vt 0.342590 0.624560
vt 0.342590 0.713429
vt 0.111037 0.888963
vt 0.111037 0.777879
vt 0.219517 0.777879
vt 0.219517 0.888963
vt 0.221222 0.888963
vt 0.221222 0.777879
vt 0.329702 0.777879
vt 0.329702 0.888963
vt 0.432165 0.888991
vt 0.432165 0.777907
vt 0.540645 0.777907
vt 0.540645 0.888991
vt 0.793674 0.219517
vt 0.882541 0.219517
vt 0.882541 0.327998
vt 0.793674 0.327998
vt 0.542350 0.888988
vt 0.542350 0.777907
vt 0.553458 0.789013
vt 0.553458 0.877882
vt 0.555163 0.888988
vt 0.555163 0.777907
vt 0.566271 0.789013
vt 0.566272 0.877882
vt 0.567977 0.888988
vt 0.567977 0.777907
vt 0.579085 0.789013
vt 0.579085 0.877882
vt 0.828777 0.199902
vt 0.828777 0.111037
vt 0.837664 0.119922
vt 0.837664 0.191017
vt 0.796712 0.570110
vt 0.885579 0.570110
vt 0.885579 0.678590
vt 0.796712 0.678590
vt 0.331407 0.777879
vt 0.420274 0.777879
vt 0.420274 0.886359
vt 0.331407 0.886359
vt 0.910343 0.843015
vt 0.821476 0.843015
vt 0.821476 0.734535
vt 0.910343 0.734535
vt 0.899871 0.109333
vt 0.828777 0.109333
vt 0.828777 0.000852
vt 0.899871 0.000852
vt 0.848256 0.111037
vt 0.848256 0.199902
vt 0.839369 0.191018
vt 0.839369 0.119922
vt 0.858848 0.111037
vt 0.858848 0.199902
vt 0.849961 0.191018
vt 0.849961 0.119922
vt 0.589677 0.777907
vt 0.589677 0.866772
vt 0.580791 0.857887
vt 0.580790 0.786791
vt 0.732812 0.141412
vt 0.732812 0.212500
vt 0.718594 0.198287
vt 0.718592 0.155625
vt 0.920077 0.503271
vt 0.848984 0.503271
vt 0.848984 0.394790
vt 0.920077 0.394790
vt 0.892569 0.953200
vt 0.821476 0.953200
vt 0.821476 0.844720
vt 0.892569 0.844720
vt 0.955340 0.327998
vt 0.884246 0.327998
vt 0.884246 0.219517
vt 0.955340 0.219517
vt 0.929940 0.678590
vt 0.887284 0.678590
vt 0.887284 0.570110
vt 0.929940 0.570110
vt 0.748737 0.141412
vt 0.748737 0.212500
vt 0.734519 0.198287
vt 0.734517 0.155625
vt 0.764661 0.141412
vt 0.764661 0.212500
vt 0.750444 0.198287
vt 0.750441 0.155625
vt 0.780586 0.141412
vt 0.780586 0.212500
vt 0.766368 0.198287
vt 0.766366 0.155625
vt 0.683967 0.165256
vt 0.683967 0.207912
vt 0.656847 0.207912
vt 0.656847 0.165256
vt 0.944232 0.109333
vt 0.901576 0.109333
vt 0.901576 0.000852
vt 0.944232 0.000852
vt 0.936930 0.953200
vt 0.894274 0.953200
vt 0.894274 0.844720
vt 0.936930 0.844720
vt 0.954704 0.843015
vt 0.912048 0.843015
vt 0.912048 0.734535
vt 0.954704 0.734535
vt 0.675333 0.454796
vt 0.675349 0.497474
vt 0.615309 0.557489
vt 0.615309 0.394790
vt 0.712792 0.165256
vt 0.712792 0.207912
vt 0.685672 0.207912
vt 0.685672 0.165256
vt 0.782291 0.184068
vt 0.782291 0.141412
vt 0.809411 0.141412
vt 0.809411 0.184068
vt 0.793675 0.372358
vt 0.793675 0.329702
vt 0.820795 0.329702
vt 0.820795 0.372358
vt 0.601106 0.732830
vt 0.601106 0.570110
vt 0.763826 0.570110
vt 0.763826 0.732830
vt 0.656863 0.103545
vt 0.656847 0.060868
vt 0.716887 0.000852
vt 0.716887 0.163551
vt 0.677070 0.497483
vt 0.677054 0.454805
vt 0.737094 0.394790
vt 0.737094 0.557489
vt 0.344311 0.716148
vt 0.344295 0.673471
vt 0.404335 0.613455
vt 0.404335 0.776154
vt 0.000852 0.776174
vt 0.000852 0.613454
vt 0.163572 0.613454
vt 0.163572 0.776174
vt 0.165277 0.776174
vt 0.165277 0.613454
vt 0.327998 0.613454
vt 0.327998 0.776174
vt 0.432165 0.776202
vt 0.432165 0.613482
vt 0.594885 0.613482
vt 0.594885 0.776202
vt 0.613659 0.382238
vt 0.613659 0.219517
vt 0.776379 0.219517
vt 0.776379 0.382238
vt 0.921782 0.394790
vt 0.964438 0.394790
vt 0.964438 0.503271
vt 0.921782 0.503271
vt 0.974301 0.678590
vt 0.931645 0.678590
vt 0.931645 0.570110
vt 0.974301 0.570110
vt 0.981291 0.953200
vt 0.938635 0.953200
vt 0.938635 0.844720
vt 0.981291 0.844720
vt 0.643762 0.983574
vt 0.601106 0.983574
vt 0.601106 0.875094
vt 0.643762 0.875094
vt 0.688123 0.983574
vt 0.645467 0.983574
vt 0.645467 0.875094
vt 0.688123 0.875094
vt 0.732484 0.983574
vt 0.689828 0.983574
vt 0.689828 0.875094
vt 0.732484 0.875094
vt 0.776845 0.983574
vt 0.734189 0.983574
vt 0.734189 0.875094
vt 0.776845 0.875094
vt 0.988593 0.109333
vt 0.945937 0.109333
vt 0.945937 0.000852
vt 0.988593 0.000852
vt 0.374063 0.996544
vt 0.331407 0.996544
vt 0.331407 0.888064
vt 0.374063 0.888064
vt 0.418424 0.996544
vt 0.375768 0.996544
vt 0.375768 0.888064
vt 0.418424 0.888064
vt 0.999065 0.843015
vt 0.956408 0.843015
vt 0.956408 0.734535
vt 0.999065 0.734535
vt 0.043508 0.999148
vt 0.000852 0.999148
vt 0.000852 0.890667
vt 0.043508 0.890667
vt 0.087869 0.999148
vt 0.045213 0.999148
vt 0.045213 0.890667
vt 0.087869 0.890667
vt 0.132230 0.999148
vt 0.089574 0.999148
vt 0.089574 0.890667
vt 0.132230 0.890667
vt 0.176591 0.999148
vt 0.133935 0.999148
vt 0.133935 0.890667
vt 0.176591 0.890667
vt 0.220952 0.999148
vt 0.178296 0.999148
vt 0.178296 0.890667
vt 0.220952 0.890667
vt 0.172421 0.603072
vt 0.172421 0.446859
vt 0.186314 0.438182
vt 0.186314 0.611749
vt 0.453780 0.603068
vt 0.453780 0.446855
vt 0.467672 0.438178
vt 0.467672 0.611745
vt 0.281906 0.603072
vt 0.281906 0.446859
vt 0.295799 0.438182
vt 0.295799 0.611749
vt 0.217508 0.446859
vt 0.217508 0.603072
vt 0.203616 0.611749
vt 0.203616 0.438183
vt 0.405354 0.438182
vt 0.405354 0.611750
vt 0.394506 0.611750
vt 0.394506 0.438182
vt 0.417907 0.438182
vt 0.417907 0.611751
vt 0.407059 0.611751
vt 0.407059 0.438182
vt 0.430460 0.438182
vt 0.430460 0.611751
vt 0.419612 0.611751
vt 0.419612 0.438182
vt 0.611954 0.219517
vt 0.611954 0.393086
vt 0.601106 0.393086
vt 0.601106 0.219517
vt 0.155119 0.438182
vt 0.155119 0.611749
vt 0.141227 0.603072
vt 0.141227 0.446859
vt 0.201911 0.446860
vt 0.201911 0.603072
vt 0.188019 0.611749
vt 0.188019 0.438183
vt 0.077134 0.438183
vt 0.077134 0.611749
vt 0.063241 0.603072
vt 0.063241 0.446860
vt 0.233410 0.446859
vt 0.233410 0.603072
vt 0.219517 0.611749
vt 0.219517 0.438183
vt 0.280201 0.438182
vt 0.280201 0.611749
vt 0.266309 0.603072
vt 0.266309 0.446860
vt 0.469377 0.603068
vt 0.469377 0.446855
vt 0.483269 0.438178
vt 0.483269 0.611745
vt 0.484974 0.611745
vt 0.484974 0.438178
vt 0.498866 0.446855
vt 0.498866 0.603068
vt 0.438182 0.611745
vt 0.438182 0.438178
vt 0.452075 0.446855
vt 0.452075 0.603068
vt 0.500571 0.603068
vt 0.500571 0.446855
vt 0.514464 0.438178
vt 0.514464 0.611745
vt 0.530061 0.438178
vt 0.530061 0.611745
vt 0.516169 0.603068
vt 0.516168 0.446855
vt 0.000852 0.603072
vt 0.000853 0.446860
vt 0.014745 0.438183
vt 0.014745 0.611749
vt 0.313101 0.611749
vt 0.313101 0.438183
vt 0.326993 0.446860
vt 0.326993 0.603072
vt 0.108328 0.446859
vt 0.108328 0.603072
vt 0.094436 0.611749
vt 0.094436 0.438182
vt 0.583804 0.219517
vt 0.583804 0.393084
vt 0.569912 0.384407
vt 0.569912 0.228194
vt 0.264604 0.438182
vt 0.264604 0.611749
vt 0.250712 0.603072
vt 0.250712 0.446859
vt 0.123925 0.446859
vt 0.123925 0.603072
vt 0.110033 0.611749
vt 0.110033 0.438182
vt 0.583804 0.394789
vt 0.583804 0.568356
vt 0.569912 0.559679
vt 0.569912 0.403466
vt 0.342590 0.446860
vt 0.342590 0.603072
vt 0.328698 0.611749
vt 0.328698 0.438182
vt 0.599401 0.219517
vt 0.599401 0.393084
vt 0.585509 0.384407
vt 0.585509 0.228194
vt 0.016450 0.603072
vt 0.016450 0.446860
vt 0.030342 0.438183
vt 0.030342 0.611749
vt 0.599401 0.394789
vt 0.599401 0.568356
vt 0.585509 0.559679
vt 0.585509 0.403466
vt 0.311396 0.438182
vt 0.311396 0.611749
vt 0.297503 0.603072
vt 0.297504 0.446859
vt 0.032047 0.603072
vt 0.032047 0.446860
vt 0.045939 0.438183
vt 0.045939 0.611749
vt 0.092731 0.438182
vt 0.092731 0.611749
vt 0.078838 0.603072
vt 0.078839 0.446859
vt 0.156824 0.603072
vt 0.156824 0.446859
vt 0.170717 0.438182
vt 0.170716 0.611749
vt 0.235115 0.611749
vt 0.235115 0.438183
vt 0.249007 0.446860
vt 0.249007 0.603072
vt 0.047644 0.603072
vt 0.047644 0.446860
vt 0.061536 0.438183
vt 0.061536 0.611749
vt 0.125630 0.611749
vt 0.125630 0.438183
vt 0.139522 0.446860
vt 0.139522 0.603072
vt 0.531788 0.570057
vt 0.605840 0.568385
vt 0.605840 0.394790
vt 0.608869 0.394839
vt 0.608870 0.568385
vt 0.432165 0.611777
vt 0.432165 0.438182
vt 0.435194 0.438231
vt 0.435194 0.611777
vt 0.610575 0.568385
vt 0.610576 0.394790
vt 0.613604 0.394839
vt 0.613604 0.568385
vt 0.601106 0.568405
vt 0.601106 0.394811
vt 0.604135 0.394790
vt 0.604135 0.568365
s 0
usemtl Material
f 1/1/1 5/2/1 7/3/1 3/4/1
f 4/5/2 3/6/2 7/7/2 8/8/2
f 8/9/3 7/10/3 5/11/3 6/12/3
f 6/13/4 2/14/4 4/15/4 8/16/4
f 2/17/5 1/18/5 3/19/5 4/20/5
f 1/21/6 2/22/6 9/23/6 11/24/6
f 86/25/1 85/26/1 15/27/1 16/28/1
f 6/29/6 5/30/6 12/31/6 10/32/6
f 2/33/6 6/34/6 10/35/6 9/36/6
f 5/37/6 1/38/6 11/39/6 12/40/6
f 14/41/6 16/42/6 20/43/6 18/44/6
f 85/45/5 87/46/5 13/47/5 15/48/5
f 88/49/3 86/50/3 16/51/3 14/52/3
f 87/53/4 88/54/4 14/55/4 13/56/4
f 18/57/3 20/58/3 24/59/3 22/60/3
f 13/61/6 14/62/6 18/63/6 17/64/6
f 16/65/6 15/66/6 19/67/6 20/68/6
f 15/69/6 13/70/6 17/71/6 19/72/6
f 24/73/6 23/74/6 27/75/6 28/76/6
f 17/77/4 18/78/4 22/79/4 21/80/4
f 20/81/1 19/82/1 23/83/1 24/84/1
f 19/85/5 17/86/5 21/87/5 23/88/5
f 26/89/3 28/90/3 32/91/3 30/92/3
f 23/93/6 21/94/6 25/95/6 27/96/6
f 22/97/6 24/98/6 28/99/6 26/100/6
f 21/101/6 22/102/6 26/103/6 25/104/6
f 29/105/6 30/106/6 34/107/6 33/108/6
f 25/109/4 26/110/4 30/111/4 29/112/4
f 28/113/1 27/114/1 31/115/1 32/116/1
f 27/117/5 25/118/5 29/119/5 31/120/5
f 36/121/1 35/122/1 39/123/1 40/124/1
f 32/125/6 31/126/6 35/127/6 36/128/6
f 31/129/6 29/130/6 33/131/6 35/132/6
f 30/133/6 32/134/6 36/135/6 34/136/6
f 38/137/6 40/138/6 44/139/6 42/140/6
f 35/141/5 33/142/5 37/143/5 39/144/5
f 34/145/3 36/146/3 40/147/3 38/148/3
f 33/149/4 34/150/4 38/151/4 37/152/4
f 44/153/1 43/154/1 47/155/1 48/156/1
f 37/157/6 38/158/6 42/159/6 41/160/6
f 40/161/6 39/162/6 43/163/6 44/164/6
f 39/165/6 37/166/6 41/167/6 43/168/6
f 47/169/6 45/170/6 49/171/6 51/172/6
f 43/173/5 41/174/5 45/175/5 47/176/5
f 42/177/3 44/178/3 48/179/3 46/180/3
f 41/181/4 42/182/4 46/183/4 45/184/4
f 70/185/5 69/186/5 56/187/5 54/188/5
f 46/189/6 48/190/6 52/191/6 50/192/6
f 45/193/6 46/194/6 50/195/6 49/196/6
f 48/197/6 47/198/6 51/199/6 52/200/6
f 56/201/4 55/202/4 59/203/4 60/204/4
f 71/205/1 70/206/1 54/207/1 53/208/1
f 69/209/4 72/210/4 55/211/4 56/212/4
f 72/213/3 71/214/3 53/215/3 55/216/3
f 58/217/2 60/218/2 64/219/2 62/220/2
f 55/221/3 53/222/3 57/223/3 59/224/3
f 54/225/5 56/226/5 60/227/5 58/228/5
f 53/229/1 54/230/1 58/231/1 57/232/1
f 62/233/5 64/234/5 68/235/5 66/236/5
f 57/237/2 58/238/2 62/239/2 61/240/2
f 60/241/2 59/242/2 63/243/2 64/244/2
f 59/245/2 57/246/2 61/247/2 63/248/2
f 66/249/6 68/250/6 67/251/6 65/252/6
f 61/253/1 62/254/1 66/255/1 65/256/1
f 64/257/4 63/258/4 67/259/4 68/260/4
f 63/261/3 61/262/3 65/263/3 67/264/3
f 76/265/3 74/266/3 71/267/3 72/268/3
f 75/269/4 76/270/4 72/271/4 69/272/4
f 74/273/1 73/274/1 70/275/1 71/276/1
f 73/277/5 75/278/5 69/279/5 70/280/5
f 77/281/5 79/282/5 75/283/5 73/284/5
f 78/285/1 77/286/1 73/287/1 74/288/1
f 79/289/4 80/290/4 76/291/4 75/292/4
f 80/293/3 78/294/3 74/295/3 76/296/3
f 84/297/3 82/298/3 78/299/3 80/300/3
f 83/301/4 84/302/4 80/303/4 79/304/4
f 82/305/1 81/306/1 77/307/1 78/308/1
f 81/309/5 83/310/5 79/311/5 77/312/5
f 50/313/5 52/314/5 83/315/5 81/316/5
f 49/317/1 50/318/1 81/319/1 82/320/1
f 52/321/4 51/322/4 84/323/4 83/324/4
f 51/325/3 49/326/3 82/327/3 84/328/3
f 106/329/7 114/330/7 88/331/7 87/332/7
f 114/333/8 107/334/8 86/335/8 88/336/8
f 99/337/9 106/338/9 87/339/9 85/340/9
f 107/341/10 99/342/10 85/343/10 86/344/10
f 12/345/1 11/346/1 91/347/1 89/348/1
f 11/349/5 9/350/5 92/351/5 91/352/5
f 10/353/3 12/354/3 89/355/3 90/356/3
f 9/357/4 10/358/4 90/359/4 92/360/4
f 89/361/11 91/362/11 93/363/11 113/364/11
f 113/365/10 93/366/10 94/367/10 112/368/10
f 112/369/11 94/370/11 95/371/11 111/372/11
f 111/373/10 95/374/10 96/375/10 110/376/10
f 110/377/11 96/378/11 97/379/11 109/380/11
f 109/381/10 97/382/10 98/383/10 108/384/10
f 108/385/11 98/386/11 99/387/11 107/388/11
f 91/389/12 92/390/12 100/391/12 93/392/12
f 93/393/9 100/394/9 101/395/9 94/396/9
f 94/397/12 101/398/12 102/399/12 95/400/12
f 95/401/9 102/402/9 103/403/9 96/404/9
f 96/405/12 103/406/12 104/407/12 97/408/12
f 97/409/9 104/410/9 105/411/9 98/412/9
f 98/413/12 105/414/12 106/415/12 99/416/12
f 90/417/13 89/418/13 113/419/13 120/420/13
f 120/421/8 113/422/8 112/423/8 119/424/8
f 119/425/13 112/426/13 111/427/13 118/428/13
f 118/429/8 111/430/8 110/431/8 117/432/8
f 117/433/13 110/434/13 109/435/13 116/436/13
f 116/437/8 109/438/8 108/439/8 115/440/8
f 115/441/13 108/442/13 107/443/13 114/444/13
f 92/445/14 90/446/14 120/447/14 100/448/14
f 100/449/7 120/450/7 119/451/7 101/452/7
f 101/453/14 119/454/14 118/455/14 102/456/14
f 102/457/7 118/458/7 117/459/7 103/460/7
f 103/461/14 117/462/14 116/463/14 104/464/14
f 104/465/7 116/466/7 115/467/7 105/468/7
f 105/469/14 115/470/14 114/471/14 106/472/14
f 85/473/1 87/473/1 123/473/1 121/473/1
f 87/474/1 88/475/1 124/476/1 123/477/1
f 86/478/1 85/479/1 121/480/1 122/481/1
f 108/482/1 98/483/1 125/484/1 126/485/1
f 88/486/1 86/487/1 122/488/1 124/489/1
